<mxfile host="app.diagrams.net" modified="2024-01-15T13:32:52.355Z" agent="Mozilla/5.0 (Macintosh; Intel Mac OS X 10_15_7) AppleWebKit/537.36 (KHTML, like Gecko) Chrome/120.0.0.0 Safari/537.36" version="22.1.16" etag="D3gd34HA4govOTaqyPKf" type="github">
  <diagram name="第 1 页" id="amXI5kjnNAo7ddwZQEVA">
    <mxGraphModel>
      <root>
        <mxCell id="0" />
        <mxCell id="1" parent="0" />
      </root>
    </mxGraphModel>
  </diagram>
</mxfile>
